<mxfile host="app.diagrams.net" agent="Mozilla/5.0 (Windows NT 10.0; Win64; x64) AppleWebKit/537.36 (KHTML, like Gecko) Chrome/136.0.0.0 Safari/537.36 Edg/136.0.0.0" version="27.1.1">
  <diagram name="Page-1" id="RGOq8lqfi6i8Ctn7MAA8">
    <mxGraphModel dx="1034" dy="636" grid="0" gridSize="10" guides="1" tooltips="1" connect="1" arrows="1" fold="1" page="1" pageScale="1" pageWidth="850" pageHeight="1100" background="light-dark(#000000,#000000)" math="0" shadow="0">
      <root>
        <mxCell id="0" />
        <mxCell id="1" parent="0" />
        <mxCell id="wvd1j4CsccvjR-k-unC9-2" value="VPC" style="points=[[0,0],[0.25,0],[0.5,0],[0.75,0],[1,0],[1,0.25],[1,0.5],[1,0.75],[1,1],[0.75,1],[0.5,1],[0.25,1],[0,1],[0,0.75],[0,0.5],[0,0.25]];outlineConnect=0;gradientColor=none;html=1;whiteSpace=wrap;fontSize=12;fontStyle=0;container=1;pointerEvents=0;collapsible=0;recursiveResize=0;shape=mxgraph.aws4.group;grIcon=mxgraph.aws4.group_vpc2;strokeColor=#8C4FFF;fillColor=none;verticalAlign=top;align=left;spacingLeft=30;fontColor=#AAB7B8;dashed=0;" parent="1" vertex="1">
          <mxGeometry x="270" y="280" width="510" height="307" as="geometry" />
        </mxCell>
        <mxCell id="wvd1j4CsccvjR-k-unC9-3" value="Public subnet" style="points=[[0,0],[0.25,0],[0.5,0],[0.75,0],[1,0],[1,0.25],[1,0.5],[1,0.75],[1,1],[0.75,1],[0.5,1],[0.25,1],[0,1],[0,0.75],[0,0.5],[0,0.25]];outlineConnect=0;gradientColor=none;html=1;whiteSpace=wrap;fontSize=12;fontStyle=0;container=1;pointerEvents=0;collapsible=0;recursiveResize=0;shape=mxgraph.aws4.group;grIcon=mxgraph.aws4.group_security_group;grStroke=0;strokeColor=#7AA116;fillColor=#F2F6E8;verticalAlign=top;align=left;spacingLeft=30;fontColor=#248814;dashed=0;" parent="wvd1j4CsccvjR-k-unC9-2" vertex="1">
          <mxGeometry x="30" y="30" width="460" height="260" as="geometry" />
        </mxCell>
        <mxCell id="wvd1j4CsccvjR-k-unC9-6" value="VPC Link" style="sketch=0;points=[[0,0,0],[0.25,0,0],[0.5,0,0],[0.75,0,0],[1,0,0],[0,1,0],[0.25,1,0],[0.5,1,0],[0.75,1,0],[1,1,0],[0,0.25,0],[0,0.5,0],[0,0.75,0],[1,0.25,0],[1,0.5,0],[1,0.75,0]];outlineConnect=0;fontColor=#232F3E;fillColor=#8C4FFF;strokeColor=#ffffff;dashed=0;verticalLabelPosition=bottom;verticalAlign=top;align=center;html=1;fontSize=12;fontStyle=0;aspect=fixed;shape=mxgraph.aws4.resourceIcon;resIcon=mxgraph.aws4.vpc_privatelink;" parent="wvd1j4CsccvjR-k-unC9-3" vertex="1">
          <mxGeometry x="20" y="128" width="78" height="78" as="geometry" />
        </mxCell>
        <mxCell id="wvd1j4CsccvjR-k-unC9-7" value="Cloud Map" style="sketch=0;points=[[0,0,0],[0.25,0,0],[0.5,0,0],[0.75,0,0],[1,0,0],[0,1,0],[0.25,1,0],[0.5,1,0],[0.75,1,0],[1,1,0],[0,0.25,0],[0,0.5,0],[0,0.75,0],[1,0.25,0],[1,0.5,0],[1,0.75,0]];outlineConnect=0;fontColor=#232F3E;fillColor=#8C4FFF;strokeColor=#ffffff;dashed=0;verticalLabelPosition=bottom;verticalAlign=top;align=center;html=1;fontSize=12;fontStyle=0;aspect=fixed;shape=mxgraph.aws4.resourceIcon;resIcon=mxgraph.aws4.cloud_map;" parent="wvd1j4CsccvjR-k-unC9-3" vertex="1">
          <mxGeometry x="136" y="128" width="78" height="78" as="geometry" />
        </mxCell>
        <mxCell id="wvd1j4CsccvjR-k-unC9-8" value="ECS" style="sketch=0;points=[[0,0,0],[0.25,0,0],[0.5,0,0],[0.75,0,0],[1,0,0],[0,1,0],[0.25,1,0],[0.5,1,0],[0.75,1,0],[1,1,0],[0,0.25,0],[0,0.5,0],[0,0.75,0],[1,0.25,0],[1,0.5,0],[1,0.75,0]];outlineConnect=0;fontColor=#232F3E;fillColor=#ED7100;strokeColor=#ffffff;dashed=0;verticalLabelPosition=bottom;verticalAlign=top;align=center;html=1;fontSize=12;fontStyle=0;aspect=fixed;shape=mxgraph.aws4.resourceIcon;resIcon=mxgraph.aws4.ecs;" parent="wvd1j4CsccvjR-k-unC9-3" vertex="1">
          <mxGeometry x="250" y="128" width="78" height="78" as="geometry" />
        </mxCell>
        <mxCell id="wvd1j4CsccvjR-k-unC9-9" value="Faregate Task" style="sketch=0;points=[[0,0,0],[0.25,0,0],[0.5,0,0],[0.75,0,0],[1,0,0],[0,1,0],[0.25,1,0],[0.5,1,0],[0.75,1,0],[1,1,0],[0,0.25,0],[0,0.5,0],[0,0.75,0],[1,0.25,0],[1,0.5,0],[1,0.75,0]];outlineConnect=0;fontColor=#232F3E;fillColor=#ED7100;strokeColor=#ffffff;dashed=0;verticalLabelPosition=bottom;verticalAlign=top;align=center;html=1;fontSize=12;fontStyle=0;aspect=fixed;shape=mxgraph.aws4.resourceIcon;resIcon=mxgraph.aws4.fargate;" parent="wvd1j4CsccvjR-k-unC9-3" vertex="1">
          <mxGeometry x="360" y="128" width="78" height="78" as="geometry" />
        </mxCell>
        <mxCell id="wvd1j4CsccvjR-k-unC9-14" value="" style="edgeStyle=orthogonalEdgeStyle;html=1;endArrow=block;elbow=vertical;startArrow=none;endFill=1;strokeColor=#FF3333;rounded=0;" parent="wvd1j4CsccvjR-k-unC9-3" source="wvd1j4CsccvjR-k-unC9-6" target="wvd1j4CsccvjR-k-unC9-7" edge="1">
          <mxGeometry width="100" relative="1" as="geometry">
            <mxPoint x="-55" y="100" as="sourcePoint" />
            <mxPoint x="30" y="100" as="targetPoint" />
          </mxGeometry>
        </mxCell>
        <mxCell id="wvd1j4CsccvjR-k-unC9-15" value="" style="edgeStyle=orthogonalEdgeStyle;html=1;endArrow=block;elbow=vertical;startArrow=none;endFill=1;strokeColor=#FF3333;rounded=0;" parent="wvd1j4CsccvjR-k-unC9-3" source="wvd1j4CsccvjR-k-unC9-7" target="wvd1j4CsccvjR-k-unC9-8" edge="1">
          <mxGeometry width="100" relative="1" as="geometry">
            <mxPoint x="108" y="100" as="sourcePoint" />
            <mxPoint x="150" y="100" as="targetPoint" />
          </mxGeometry>
        </mxCell>
        <mxCell id="wvd1j4CsccvjR-k-unC9-16" value="" style="edgeStyle=orthogonalEdgeStyle;html=1;endArrow=block;elbow=vertical;startArrow=none;endFill=1;strokeColor=#FF3333;rounded=0;" parent="wvd1j4CsccvjR-k-unC9-3" source="wvd1j4CsccvjR-k-unC9-8" target="wvd1j4CsccvjR-k-unC9-9" edge="1">
          <mxGeometry width="100" relative="1" as="geometry">
            <mxPoint x="228" y="100" as="sourcePoint" />
            <mxPoint x="299" y="151" as="targetPoint" />
          </mxGeometry>
        </mxCell>
        <mxCell id="c7iJ_6Ejtbwq_aCWZult-7" value="" style="edgeStyle=orthogonalEdgeStyle;html=1;endArrow=block;elbow=vertical;startArrow=none;endFill=1;strokeColor=#FF3333;rounded=0;exitX=0.5;exitY=0;exitDx=0;exitDy=0;exitPerimeter=0;" parent="wvd1j4CsccvjR-k-unC9-3" source="wvd1j4CsccvjR-k-unC9-9" edge="1">
          <mxGeometry width="100" relative="1" as="geometry">
            <mxPoint x="228" y="100" as="sourcePoint" />
            <mxPoint x="399" y="105" as="targetPoint" />
          </mxGeometry>
        </mxCell>
        <mxCell id="XWSHklq8fUwGZnzYxTqS-1" value="" style="outlineConnect=0;dashed=0;verticalLabelPosition=bottom;verticalAlign=top;align=center;html=1;shape=mxgraph.aws3.s3;fillColor=#E05243;gradientColor=none;" vertex="1" parent="wvd1j4CsccvjR-k-unC9-2">
          <mxGeometry x="392" y="38" width="76.5" height="93" as="geometry" />
        </mxCell>
        <mxCell id="wvd1j4CsccvjR-k-unC9-4" value="API Gateway&lt;div&gt;&lt;br&gt;&lt;/div&gt;" style="sketch=0;points=[[0,0,0],[0.25,0,0],[0.5,0,0],[0.75,0,0],[1,0,0],[0,1,0],[0.25,1,0],[0.5,1,0],[0.75,1,0],[1,1,0],[0,0.25,0],[0,0.5,0],[0,0.75,0],[1,0.25,0],[1,0.5,0],[1,0.75,0]];outlineConnect=0;fillColor=#E7157B;strokeColor=#ffffff;dashed=0;verticalLabelPosition=bottom;verticalAlign=top;align=center;html=1;aspect=fixed;shape=mxgraph.aws4.resourceIcon;resIcon=mxgraph.aws4.api_gateway;fontColor=light-dark(#FFFFFF,#FFFFFF);" parent="1" vertex="1">
          <mxGeometry x="172" y="438" width="78" height="78" as="geometry" />
        </mxCell>
        <mxCell id="wvd1j4CsccvjR-k-unC9-12" value="" style="edgeStyle=orthogonalEdgeStyle;html=1;endArrow=block;elbow=vertical;startArrow=none;endFill=1;strokeColor=#FF3333;rounded=0;" parent="1" source="wvd1j4CsccvjR-k-unC9-4" target="wvd1j4CsccvjR-k-unC9-6" edge="1">
          <mxGeometry width="100" relative="1" as="geometry">
            <mxPoint x="208" y="389" as="sourcePoint" />
            <mxPoint x="308" y="389" as="targetPoint" />
          </mxGeometry>
        </mxCell>
        <mxCell id="wvd1j4CsccvjR-k-unC9-19" value="" style="sketch=0;outlineConnect=0;fontColor=#ffffff;fillColor=#0050ef;strokeColor=#001DBC;dashed=0;verticalLabelPosition=bottom;verticalAlign=top;align=center;html=1;fontSize=12;fontStyle=0;aspect=fixed;pointerEvents=1;shape=mxgraph.aws4.mobile_client;" parent="1" vertex="1">
          <mxGeometry x="90" y="441" width="41" height="78" as="geometry" />
        </mxCell>
        <mxCell id="wvd1j4CsccvjR-k-unC9-20" value="" style="edgeStyle=orthogonalEdgeStyle;html=1;endArrow=block;elbow=vertical;startArrow=none;endFill=1;strokeColor=#FF3333;rounded=0;" parent="1" source="wvd1j4CsccvjR-k-unC9-19" target="wvd1j4CsccvjR-k-unC9-4" edge="1">
          <mxGeometry width="100" relative="1" as="geometry">
            <mxPoint x="245" y="399" as="sourcePoint" />
            <mxPoint x="330" y="399" as="targetPoint" />
            <Array as="points">
              <mxPoint x="137" y="477" />
              <mxPoint x="137" y="477" />
            </Array>
          </mxGeometry>
        </mxCell>
        <mxCell id="XWSHklq8fUwGZnzYxTqS-4" style="edgeStyle=orthogonalEdgeStyle;rounded=0;orthogonalLoop=1;jettySize=auto;html=1;exitX=0.5;exitY=1;exitDx=0;exitDy=0;" edge="1" parent="1" source="wvd1j4CsccvjR-k-unC9-2" target="wvd1j4CsccvjR-k-unC9-2">
          <mxGeometry relative="1" as="geometry" />
        </mxCell>
      </root>
    </mxGraphModel>
  </diagram>
</mxfile>
